<svg width="100" height="100" viewBox="0 0 100 100" fill="none" xmlns="http://www.w3.org/2000/svg">
<rect x="39" y="24" width="22" height="4" fill="black"/>
<rect x="39" y="38" width="22" height="4" fill="black"/>
<rect x="39" y="46" width="22" height="4" fill="black"/>
<rect x="39" y="54" width="22" height="4" fill="black"/>
<rect x="39" y="78" width="21" height="4" fill="black"/>
<rect x="58.4648" y="75" width="12" height="4" transform="rotate(60 58.4648 75)" fill="black"/>
<rect x="44.4648" y="61" width="12" height="4" transform="rotate(60 44.4648 61)" fill="black"/>
<rect x="53.1797" y="57.3027" width="12" height="4" transform="rotate(125.153 53.1797 57.3027)" fill="black"/>
<rect x="59.1797" y="62.3027" width="23.0945" height="4" transform="rotate(125.153 59.1797 62.3027)" fill="black"/>
<rect x="48" y="39" width="26" height="4" transform="rotate(-90 48 39)" fill="black"/>
<circle cx="50" cy="50" r="38" stroke="black" stroke-width="4"/>
</svg>
