<svg width="191" height="82" viewBox="0 0 191 82" fill="none" xmlns="http://www.w3.org/2000/svg">
<g clip-path="url(#clip0_346_4670)">
<mask id="mask0_346_4670" style="mask-type:luminance" maskUnits="userSpaceOnUse" x="16" y="21" width="159" height="36">
<path d="M174.421 21.5H16V56.5H174.421V21.5Z" fill="white"/>
</mask>
<g mask="url(#mask0_346_4670)">
<mask id="mask1_346_4670" style="mask-type:luminance" maskUnits="userSpaceOnUse" x="16" y="21" width="159" height="36">
<path d="M174.45 21.5H16V56.5H174.45V21.5Z" fill="white"/>
</mask>
<g mask="url(#mask1_346_4670)">
<path d="M150.039 55.7104H157.842V41.6626C157.842 38.4571 159.742 36.1894 162.545 36.1894C165.247 36.1894 166.647 38.0623 166.647 40.7248V55.7104H174.45V39.2468C174.45 33.6749 171.049 29.7318 165.545 29.7318C162.044 29.7318 159.592 31.2098 157.742 33.9217H157.591V30.4721H150.039V55.7104ZM134.73 29.7811C126.576 29.7811 121.122 35.5478 121.122 43.1405C121.122 50.684 126.574 56.5 134.73 56.5C142.887 56.5 148.338 50.684 148.338 43.1405C148.338 35.5504 142.887 29.7811 134.73 29.7811ZM134.68 50.8295C130.979 50.8295 129.028 47.7747 129.028 43.1405C129.028 38.4571 130.979 35.4517 134.68 35.4517C138.381 35.4517 140.432 38.4597 140.432 43.1405C140.435 47.7747 138.384 50.8295 134.68 50.8295ZM98.9117 55.7104H120.824V49.6475H108.418V49.4995L120.273 36.3868V30.4721H98.9117V36.5349H110.917V36.6829L98.9117 49.8943V55.7104ZM88.9045 55.7104H96.7579V30.4721H88.9045V55.7104ZM70.6962 55.7104H78.4994V44.1277C78.4994 38.8519 81.7024 36.5349 86.6032 37.1765H86.7534V30.5214C86.3527 30.3734 85.902 30.324 85.1532 30.324C82.1004 30.324 80.0495 31.7034 78.299 34.662H78.1488V30.4721H70.6962V55.7104ZM56.3367 50.8814C52.8859 50.8814 50.7849 48.663 50.3842 45.2627H68.843C68.893 39.839 67.4431 35.501 64.3905 32.7918C62.2392 30.8202 59.3869 29.7344 55.7858 29.7344C48.0827 29.7344 42.7285 35.501 42.7285 43.0444C42.7285 50.6347 47.8323 56.4533 56.2867 56.4533C59.4897 56.4533 62.0388 55.6141 64.1399 54.1856C66.3913 52.6582 67.9915 50.4397 68.4423 48.2214H60.9395C60.1909 49.8943 58.6381 50.8814 56.3367 50.8814ZM55.9387 35.2543C58.6909 35.2543 60.5916 37.2752 60.8921 40.2339H50.4368C51.0353 37.2258 52.6856 35.2543 55.9387 35.2543ZM88.9045 21.5H96.7579V28.3525H88.9045V21.5Z" fill="#F50A23"/>
<path d="M16 30.4727L25.7118 55.3991C25.7856 55.5888 25.9702 55.7134 26.1758 55.7134H34.0554C33.8499 55.7134 33.6653 55.5888 33.5915 55.3991L23.8797 30.4727H16Z" fill="url(#paint0_radial_346_4670)"/>
<path d="M44.2332 30.4727L34.5214 55.3991C34.4475 55.5888 34.263 55.7134 34.0573 55.7134H26.1777C26.3834 55.7134 26.5679 55.5888 26.6417 55.3991L36.3535 30.4727H44.2332Z" fill="#F50A23"/>
</g>
</g>
</g>
<defs>
<radialGradient id="paint0_radial_346_4670" cx="0" cy="0" r="1" gradientUnits="userSpaceOnUse" gradientTransform="translate(29.9745 47.0117) rotate(-90) scale(11.9748 11.0253)">
<stop stop-color="#F5FF1E"/>
<stop offset="1" stop-color="#F50A23"/>
</radialGradient>
<clipPath id="clip0_346_4670">
<rect width="158.421" height="35" fill="white" transform="translate(16 21.5)"/>
</clipPath>
</defs>
</svg>
