<svg width="200" height="100" viewBox="0 0 200 100" fill="none" xmlns="http://www.w3.org/2000/svg">
<g clip-path="url(#clip0_346_4670)">
<mask id="mask0_346_4670" style="mask-type:luminance" maskUnits="userSpaceOnUse" x="14" y="31" width="172" height="38">
<path d="M186 31H14V69H186V31Z" fill="white"/>
</mask>
<g mask="url(#mask0_346_4670)">
<mask id="mask1_346_4670" style="mask-type:luminance" maskUnits="userSpaceOnUse" x="14" y="31" width="173" height="38">
<path d="M186.031 31H14V69H186.031V31Z" fill="white"/>
</mask>
<g mask="url(#mask1_346_4670)">
<path d="M159.528 68.1427H168V52.8908C168 49.4106 170.063 46.9485 173.106 46.9485C176.039 46.9485 177.559 48.9819 177.559 51.8726V68.1427H186.031V50.2679C186.031 44.2185 182.339 39.9374 176.363 39.9374C172.562 39.9374 169.9 41.5421 167.891 44.4864H167.728V40.7411H159.528V68.1427ZM142.907 39.991C134.054 39.991 128.132 46.2519 128.132 54.4954C128.132 62.6855 134.051 69 142.907 69C151.762 69 157.681 62.6855 157.681 54.4954C157.681 46.2547 151.762 39.991 142.907 39.991ZM142.852 62.8434C138.834 62.8434 136.716 59.5268 136.716 54.4954C136.716 49.4106 138.834 46.1475 142.852 46.1475C146.871 46.1475 149.098 49.4134 149.098 54.4954C149.101 59.5268 146.874 62.8434 142.852 62.8434ZM104.018 68.1427H127.809V61.5602H114.339V61.3994L127.211 47.1628V40.7411H104.018V47.3236H117.053V47.4843L104.018 61.8281V68.1427ZM93.1535 68.1427H101.68V40.7411H93.1535V68.1427ZM73.3845 68.1427H81.8564V55.5672C81.8564 49.8392 85.334 47.3236 90.6549 48.0202H90.818V40.7947C90.383 40.634 89.8936 40.5804 89.0806 40.5804C85.7662 40.5804 83.5394 42.0779 81.6389 45.2902H81.4758V40.7411H73.3845V68.1427ZM57.7942 62.8999C54.0476 62.8999 51.7665 60.4912 51.3315 56.7995H71.3723C71.4267 50.9109 69.8525 46.2011 66.5382 43.2596C64.2025 41.119 61.1058 39.9402 57.196 39.9402C48.8326 39.9402 43.0195 46.2011 43.0195 54.3911C43.0195 62.632 48.5607 68.9493 57.7398 68.9493C61.2174 68.9493 63.985 68.0382 66.2661 66.4872C68.7106 64.8289 70.4479 62.4203 70.9373 60.0119H62.7914C61.9787 61.8281 60.2928 62.8999 57.7942 62.8999ZM57.3621 45.9332C60.3501 45.9332 62.4137 48.1274 62.74 51.3397H51.3885C52.0383 48.0738 53.8301 45.9332 57.3621 45.9332ZM93.1535 31H101.68V38.4398H93.1535V31Z" fill="#F50A23"/>
<path d="M14 40.7412L24.5443 67.8042C24.6244 68.0102 24.8248 68.1455 25.048 68.1455H33.603C33.3799 68.1455 33.1795 68.0102 33.0993 67.8042L22.5551 40.7412H14Z" fill="url(#paint0_radial_346_4670)"/>
<path d="M44.6509 40.7412L34.1067 67.8042C34.0265 68.0102 33.8261 68.1455 33.6028 68.1455H25.0479C25.2711 68.1455 25.4714 68.0102 25.5516 67.8042L36.0959 40.7412H44.6509Z" fill="#F50A23"/>
</g>
</g>
</g>
<defs>
<radialGradient id="paint0_radial_346_4670" cx="0" cy="0" r="1" gradientUnits="userSpaceOnUse" gradientTransform="translate(29.1723 58.6979) rotate(-90) scale(13.0013 11.9703)">
<stop stop-color="#F5FF1E"/>
<stop offset="1" stop-color="#F50A23"/>
</radialGradient>
<clipPath id="clip0_346_4670">
<rect width="172" height="38" fill="white" transform="translate(14 31)"/>
</clipPath>
</defs>
</svg>
